<?xml version="1.0" encoding="utf-8"?>
<!-- Generator: Adobe Illustrator 21.0.2, SVG Export Plug-In . SVG Version: 6.00 Build 0)  -->
<svg version="1.1" id="Layer_1" xmlns="http://www.w3.org/2000/svg" xmlns:xlink="http://www.w3.org/1999/xlink" x="0px" y="0px"
	 viewBox="0 0 841.9 595.3" style="enable-background:new 0 0 841.9 595.3;" xml:space="preserve">
<style type="text/css">
	.st0{fill:#FFFFFF;}
</style>
<g>
	<g>
		<path class="st0" d="M-3,141.3c283.3,0,566.7,0,850,0c0,105,0,210,0,315c-283.3,0-566.7,0-850,0C-3,351.3-3,246.3-3,141.3z
			 M784,416.3c0-0.5,0-1-0.2-1.5c-1.6-3.4-0.3-6.1,2.9-7.2c2.8-1,6.2-1.2,7.8,2.2c1.6,3.5,0.1,6-3.3,7.5c-0.1,0.1-0.1,0.5-0.1,0.8
			c4.2,0.5,5.7-2.8,5.4-5.4c-0.3-2.4-2.5-5.2-4.7-6.6c-3.5-2.2-6.8-0.3-8.8,2.9c-1.5,2.4-2.2,5.2,1.1,7.1c0.1,1,0.3,2,0.5,3.4
			c-1.8-0.4-3.3-0.8-4.7-1c-6.2-0.9-12-0.1-16.7,4.5c-4.6,4.4-4.5,11.1,0.1,15.5c5.5,5.2,13.8,5.7,17.9,1.2c2.3-2.6,2.9-5.9,0.1-7.8
			c-1.8-1.2-5.1-0.3-7.6,0c-0.5,0.1-0.9,1.8-1.3,2.7c1.1,0.1,2.2,0.3,3.4,0.3c1,0,1.9-0.4,2.9-0.5c0.7,0.9,1.4,1.7,2.1,2.6
			c-1.5,0.5-3.1,1-4.6,1.6c-3.4,1.5-9.4-0.8-11.6-4.5c-2.1-3.6-1.2-8.1,2.8-10.3c2.5-1.4,5.7-2.7,8.4-2.4c8.1,1.2,16.2,3.2,25.1,5
			c-4.8,2.4-7.3,5.1-5.2,9.6c1.5,3.2,4.5,4.1,7.6,2.6c1.4-0.7,2.1-2.9,3.7-5.3c-3.3,1.9-5,3.4-6.9,3.7c-0.8,0.2-3.2-2.5-3-2.9
			c1-2.2,2.4-4.4,4.2-5.8c1.4-1,3.8-0.9,5.7-1c2.7-0.2,5.3,0.1,8-0.1c5.7-0.4,7.4-2.8,6.7-7.3c-2.5,1.6-5.3,5-8.3,5.1
			C802.8,425.5,792.3,424.3,784,416.3z M30.4,213.8c0.8,0.5,1.7,1,2.4,1.6c3.1,2.4,6.1,2.4,8.9-0.3c3.1-3,3.1-6.6,1.1-10
			c-2-3.5-5.4-3.8-8.7-2.3c-1.4,0.6-2.2,2.7-3.2,4.1c0.4,0.4,0.8,0.8,1.2,1.1c1.5-3.9,4-6.2,7.9-3.8c3.2,1.9,3.5,5.1,1.9,8.2
			c-2,3.8-5.1,3.5-8.5,1.8C32.6,214,31.4,214.1,30.4,213.8c0-0.5,0.3-1.2,0.1-1.8c-2-6.2-4.5-12.3-6.1-18.6
			c-0.8-3.1-1.1-6.9-0.1-9.8c1-2.9,3.9-5.1,5.6-7.2c-5.2-0.7-7.6,1.1-7.9,7.3c-0.1,3,0.3,6-0.1,9c-0.3,2.5-1,5.4-2.5,7.3
			c-0.9,1.2-4,1.8-5.5,1.2c-1.1-0.4-1.9-3.3-1.7-4.9c0.1-1.1,2.3-2,3.5-3.1c-0.2-0.4-0.4-0.8-0.6-1.1c-1.5,0.9-4.2,1.6-4.3,2.7
			c-0.2,2.5-0.2,6.4,1.4,7.5c4.1,3,7.8,0.7,10.5-3.5c1.8,6.8,4,13.1,5.1,19.6c0.6,3.6,0.1,7.7-1,11.2c-1.5,4.9-5.5,7-9.5,6
			c-4.1-1-7.9-6.2-7.3-10.6c0.3-2.6,1.1-5.2,5.1-4.1c-0.2,0.9-0.4,1.5-0.4,2.1c-0.1,1.2-0.2,2.5-0.3,3.7c1.2-0.6,2.8-0.9,3.4-1.8
			c2-2.8,1.7-5.8-1-8c-2.5-1.9-7.1-0.3-9,2.8c-2.8,4.6-2.3,10,1.9,15.2c2.7,3.4,6,5.9,10.6,4.7c6.4-1.7,9.3-6.5,10.6-12.6
			c0.3-1.3,0.2-2.7,0.1-4C30.9,220,30.6,216.9,30.4,213.8z M74.5,176.8c0.1,1.2,0.2,2.5,0.4,3.7c0.7,3.7-1.5,7.1-5.1,6.7
			c-2.4-0.3-6.2-2.2-6.4-3.7c-0.2-2.4,2.1-5,3.4-7.8c-0.8,0.3-2.9,0.5-3.4,1.5c-1.1,2-2.1,4.7-1.6,6.7c0.9,4.2,5.9,6.2,10,4.6
			C76.4,186.6,77.3,182.8,74.5,176.8c-0.2-0.1-0.3-0.2-0.3-0.4c-0.1-0.1,0-0.3-0.1-0.4c1.5,0.2,3.1,0.1,4.4,0.6
			c6.2,2.4,12,2.1,17.6-1.6c5.5-3.6,6.7-10.4,2.7-15.6c-4.5-6-13.6-8.3-17.9-4.1c-1.5,1.5-2.7,5.1-1.9,6.8c0.7,1.6,4.1,2.5,6.4,2.9
			c0.9,0.2,2.2-1.9,3.4-2.9c-1.3-0.3-2.6-0.6-3.9-0.8c-0.7-0.1-1.5-0.2-3.1-0.5c1.2-1.5,1.8-2.8,2.8-3.3c3.4-1.8,9.7,1.2,11.8,5.3
			c2,4,1,8.3-3.2,10.2c-2.9,1.3-6.7,2.8-9.5,2c-8.1-2.3-15.9-5.7-24.5-8.9c6-2.5,7.9-5.7,6.3-9.3c-1.3-2.9-5.8-4.7-8.5-2.8
			c-1.2,0.8-1.4,2.9-2.2,4.6c2.4-1.4,3.8-2.9,5.3-3c1.2-0.1,3.7,1.6,3.6,2.4c-0.1,1.9-1,4.9-2.3,5.3c-3,1-6.4,1-9.6,1.1
			c-2.8,0-5.6-0.8-8.4-0.8c-5.1,0.1-7,2.7-6,7.9c3.3-5.7,5.5-6.8,12.2-5.3c3.7,0.9,7.5,1.7,10.9,3.2
			C65.4,171.4,69.9,174.2,74.5,176.8z M820,222.2c0.5,0.8,1.5,1.6,1.4,2.3c-0.6,3.7-2.1,7.4-2.1,11.1c-0.1,7.2,4.9,13.2,10.9,14.3
			c4.8,0.8,10.8-3.4,13.2-9.5c2.4-6.1,0.2-12.6-5-13.4c-1.6-0.2-4.4,0.6-5,1.8c-1,1.8-0.8,4.4-0.4,6.5c0.2,0.9,2.1,1.4,4.3,2.8
			c-0.5-3.1-0.8-4.8-1.1-6.5c0.5-0.3,1-0.5,1.5-0.8c0.9,1.4,2.4,2.7,2.6,4.2c0.7,4.7-3.6,10.2-8.2,11c-3.9,0.7-7.9-2.4-8.9-7.6
			c-0.6-3-0.9-6.4,0-9.2c2.3-7.1,5.4-14,8.3-21.4c2.6,5.8,5.9,7.7,9.6,5.8c3.8-2,3.5-5.5,2.6-8.7c-0.3-1-2.9-1.3-5.4-2.2
			c2.1,2.5,4.1,3.9,3.9,4.8c-0.4,1.7-2,3.2-3,4.7c-2-1.5-4.9-2.6-5.6-4.5c-0.9-2.6,0-5.9,0.1-8.8c0.1-3,0.7-6,0.4-8.9
			c-0.4-4.6-4.4-6.5-8.2-4.3c5.2,2,7.3,5.4,6.1,10.8c-2.1,9.4-4.5,18.7-11.7,25.7c-3.8,0.8-8.2,2.9-9.9-2.7c-1-3.1-0.7-6.7,3-8
			c4.1-1.5,6.6,0.8,7.7,5.9c2.1-4.7-0.5-6-3-7.2c-3.7-1.9-6.5-0.2-8.4,2.9c-2.3,3.5-2,7.2,1.2,9.9
			C813.6,225.4,817.1,225.9,820,222.2z M766.6,318.7c1.9,6.1,3,12.4,5.7,17.9c3.9,7.9,11.6,8.9,18.2,2.9c2.2-2,4.5-4.3,5.7-6.9
			c5.1-11,9.7-22.2,14.5-33.4c0.3-0.7,0-1.7,0-2.6c-1.7,1.6-2.2,3.7-3.1,5.5c-5,10.6-9.9,21.4-15.5,31.7c-1.2,2.3-5.4,2.9-8.2,4.4
			c-1.4-2.8-3.9-5.6-4-8.4c-0.1-6.8,1-13.6,1.4-20.4c0.1-2.3,0.5-4.9-0.5-6.8c-1.2-2.3-3.5-4-5.4-6c-1.8,1.9-4.2,3.5-5.4,5.8
			c-2.8,5.3-5,10.9-7.7,16.2c-0.6,1.1-2.2,1.6-3.4,2.4c-0.7-1.2-2.1-2.6-1.9-3.7c1.1-5.8,1.8-11.9,4.2-17.2
			c5.8-12.5,10.3-14.2,22.9-10.2c0-5.9-3.4-9.5-9.3-9.8c-15.6-0.8-31.4,16.8-27.8,32c1.6,7-1.7,10.8-5.6,14.7c-4,3.9-8.6,2.5-9.5-3
			c-0.8-4.9-0.6-9.9-0.4-14.9c0.2-5.6,1.2-11.3,1.5-16.9c0.2-5.2-2.6-9.3-6.9-10.4c-3.2-0.8-5.7-0.3-6,3.7
			c-0.9,9.1-2.5,18.2-2.4,27.4c0,7.2-1.3,13.9-3.7,20.4c-2.4,6.4-5,12.7-7.8,18.9c-0.6,1.4-2.6,2.2-3.9,3.3
			c-0.8-1.5-2.2-2.9-2.3-4.5c-0.3-3.6-0.4-7.3,0-11c1.4-13.3,3.4-26.5,4.4-39.7c0.5-6.4-0.2-12.9-1.4-19.2
			c-0.9-4.7-6.3-7.9-10.3-6.3c-2.9,1.1-5.6,3.5-7.5,6.1c-2.9,3.9-5,8.4-7.7,13.1c-0.6-2.4-0.9-4.2-1.4-5.9c-1.9-6-6.1-8.8-12.4-8.7
			c-3.6,0.1-4.9,1.1-3.5,4.9c0.9,2.3,1.4,4.8,1.5,7.3c0.9,21.7-5.5,42.1-11.8,62.5c-0.5,1.7-1.8,3.1-2.8,4.7c-0.5-0.1-1-0.3-1.6-0.4
			c0-2.2-0.2-4.4,0-6.6c1.2-12.8,2.7-25.5,3.5-38.3c0.3-5.6-0.4-11.4-1.8-16.8c-1.6-6.2-5.6-8-11.9-6.2c-3.2,0.9-6.4,2.2-9.9,3.4
			c0.4-3.9,1-7.2,1.1-10.5c0.1-3.3,0.2-6.7-0.5-9.9c-0.3-1.7-2.1-4.3-3.3-4.3c-1.7,0-4.6,1.6-4.9,3c-1.4,5.7-2.5,11.6-2.8,17.4
			c-0.2,4.3,2,7.9,7.1,8.4c-4.1,9.2-9.5,13.1-16.5,12c0.4-1.8,1-3.5,1.1-5.3c0.4-6.8,1.4-13.6,0.8-20.3c-0.6-6.6-5-11.3-11.7-12.8
			c-6.9-1.5-12.4,1.3-16.6,6.8c-3,4-3.3,8.5-2.3,13.3c0.3,1.6,0.1,3.5-0.4,5c-1.8,4.9-3.9,9.7-6,14.5c-0.4,1-0.7,2.3-1.5,3.1
			c-3.9,3.6-7.9,7-11.9,10.6c-3.5-4.8-6.4-9.2-9.9-13.2c-6.3-7.4-5.7-13.9,2.2-19.7c2.4-1.8,4.8-3.5,7.1-5.5
			c14.9-12.5,29.2-25.5,37.2-43.8c3.1-7.2,4.9-14.6,3.6-22.4c-1.6-10-9.9-15.5-19.7-13.2c-8.4,1.9-15.8,6.2-20.9,12.9
			c-6.5,8.6-12.5,17.7-17.1,27.4c-7.8,16.6-10.1,34.8-11.3,53c-0.1,1.7-0.5,4.1-1.7,4.8c-6.5,3.8-8.6,9.3-7.8,16.4
			c0.3,3.1-4,7.7-7.2,7.7c-4,0-5.6-2.8-5.8-6.2c-0.3-4.6-0.4-9.3-0.1-13.9c0.3-5.7,1.3-11.3,1.5-16.9c0.2-5.2-2.8-9.3-7-10.3
			c-2.9-0.7-5.5-0.4-5.9,3.4c-1,10.1-2.1,20.2-2.7,30.4c-0.7,12.6-5.2,24-11.1,34.8c-0.8,1.4-2.8,3-4.2,2.9c-1.2,0-2.6-2.2-3.3-3.6
			c-0.9-1.7-1.4-3.8-1.8-5.7c-5.1-22.2-7.5-44.7-7.7-67.4c0-2,1.1-4.4,2.4-6.1c6.8-8.9,14.1-17.3,20.6-26.4
			c5.7-7.9,9.9-16.7,10.5-26.7c0.3-6.1,0.7-13.3-6-16.2c-6.6-2.9-12.8,0.8-16.8,5.9c-5.7,7.3-11.2,15-15,23.4
			c-10.9,24.1-14.1,49.7-11.3,75.8c1.2,11.3-2.9,19.8-9.4,27.8c-1.8,2.2-5.5,2.9-8.3,4.4c-1.4-2.8-3.9-5.6-4-8.4
			c-0.1-6.8,1-13.6,1.4-20.4c0.1-2.3,0.5-4.9-0.5-6.8c-1.2-2.3-3.5-4-5.4-6c-1.8,1.9-4.2,3.5-5.4,5.8c-2.8,5.3-5,10.9-7.7,16.2
			c-0.6,1.1-2.2,1.6-3.4,2.4c-0.7-1.2-2.1-2.6-1.9-3.7c1.1-5.8,1.8-11.9,4.2-17.2c5.8-12.5,10.4-14.2,22.9-10.2
			c0-5.7-3.2-9.3-8.8-9.8c-17.7-1.4-33.6,19.9-27.2,36.4c0.5,1.3,1.4,3.2,0.9,4.2c-3.5,6.9-6.6,14.2-11.3,20.3
			c-4.3,5.5-11.6,4.8-16-0.9c-3-3.9-6.1-8.3-7.2-13c-2.7-12.1-5.5-24.5-5.8-36.8c-0.2-10.6,2.5-21.4,5-31.8
			c1.6-6.6,6.3-11.7,13.3-13.8c7.2-2.1,12.2,0,14.8,7c1.4,3.7,2.1,7.7,3.1,11.6c0.3,1.1,0.8,2.1,1.2,3.1c0.6-0.2,1.1-0.3,1.7-0.5
			c-1.3-5.4-1.9-11.1-4-16.2c-4.7-11.9-16.7-15.9-28-9.7c-7.5,4.1-12.5,10.5-16,18.1c-10.8,23.4-10.3,47,0.7,70
			c3.3,6.9,8.3,13.4,13.7,18.7c7.3,7.1,16.5,6.4,23.5-0.9c3.4-3.5,6-8,8.4-12.3c2-3.6,3.4-7.5,5.2-11.6c7.1,5.9,11.2,0.6,16-4.6
			c0.3,2.4,0.2,4,0.6,5.5c1.5,4.9,2.4,10.1,4.9,14.5c3.9,6.9,11.2,7.9,16.8,2.5c3.9-3.8,6.6-8.6,9.8-13.1c1-1.5,1.8-3.2,3.1-5.6
			c1.6,6.8,2.7,12.6,4.3,18.2c1.9,7,4.9,13.5,10.5,18.4c6.9,5.9,13.6,5.1,17.7-2.8c4-7.6,6.7-15.9,9.9-23.9c0.6-1.6,1.1-3.2,1.9-5.2
			c9.5,14.6,13.3,14.6,27.1,0.7c1.1,1.4,2,3.3,3.5,4c4.9,2.7,4.8,7.2,5.5,11.9c1.9,12.3,3.6,24.8,7,36.7c1.8,6.4,6.1,12.5,10.6,17.7
			c4.3,5,10.9,4.7,16.8,2.2c5.7-2.4,8.4-7.3,8.6-13.5c0-1.5,0-3-0.1-4.5c-0.9-17.4-5.8-33.7-12.8-49.6c-0.6-1.4-0.7-4.1,0.2-5
			c3.5-3.5,7.4-6.5,11.4-9.9c2.5,5.8,6,10.3,12.3,11.7c9,2,14.8-1.4,19.7-11.3c0.8-1.7,2.6-3.7,4.2-4c8-1.3,13.3-6,16.5-13
			c1.9-4.1,4.9-5.2,9.3-5.6c-0.1,2-0.2,3.6-0.3,5.2c-0.8,11.1-2.3,22.3-2.3,33.4c0,8,1.3,16.2,2.9,24.1c1,4.9,4.8,8.1,10.1,8.3
			c5,0.2,6.3-4.3,7.3-7.7c3.5-10.9,6.4-22,9.5-33.1c0.5-1.7,0.9-3.5,1.3-5.3c1.3,1.6,1.7,3.1,2.1,4.5c1,3.4,2.2,6.3,6.7,5.9
			c4.5-0.4,4.9-3.3,5.2-7c1-13.2,4-26,9.7-38.1c1.3-2.8,3.6-5.1,5.4-7.6c0.6,0.2,1.2,0.4,1.8,0.6c0.4,2,1.2,4,1.1,6
			c-0.1,5.8-0.6,11.6-0.8,17.5c-0.5,12.8-1.3,25.6-1.1,38.4c0.1,5.3,1.7,10.9,3.9,15.8c2.8,6.2,8.3,6.1,11.6,0.3
			c2.2-3.9,4-8,5.7-12.2c2.2-5.5,4.2-11.2,6.4-17.2c0.7,0.9,1.2,1.3,1.5,1.9c6.3,13.2,16.6,10,23.2,0.9c2-2.8,3.9-5.7,5.8-8.6
			C757.9,326.7,758.4,326.7,766.6,318.7z M312.8,295.6c-0.4-0.1-0.8-0.2-1.2-0.3c-0.5,1.6-1.1,3.2-1.6,4.8
			c-3.3,11.7-6.4,23.5-10,35.1c-1.6,5-4,9.9-6.4,14.6c-0.8,1.6-2.9,3.3-4.4,3.3c-1.2,0-2.7-2.4-3.5-4c-0.9-1.6-1.2-3.4-1.6-5.2
			c-5.1-22.2-7.5-44.7-7.7-67.4c0-2.2,1.3-4.7,2.7-6.5c6.7-8.7,13.9-17,20.3-26c5.7-7.9,9.9-16.7,10.5-26.6c0.4-6.1,0.7-13.2-6-16.2
			c-6.6-3-12.8,0.8-16.8,5.8c-5.7,7.2-11.2,15-15,23.4c-10.6,23.4-13.8,48.3-11.5,73.8c0.7,8.1-1.8,14.3-6.5,20.2
			c-3.3,4.2-7,8.8-13.1,7.8c-6.5-1.1-8.2-7-10.4-12.3c-1.2-3-0.2-4.3,2.4-5.9c4.1-2.5,8.1-5.3,11.5-8.6c4.8-4.8,5-11.7,1.2-16.3
			c-3-3.5-9-3.9-14.7-0.4c-9.7,5.9-15.1,14.8-13.3,26c1.4,8.7-1.4,15.7-5.3,22.7c-1.9,3.5-3.9,8.9-8.5,7.7c-2.7-0.7-5.3-5.8-6-9.3
			c-4.8-24.4-5.9-48.9-1.2-73.5c0.5-2.9,1.8-3.4,4.5-3c3.3,0.5,6.6,0.5,9.9,0.7c0.1-0.6,0.1-1.1,0.2-1.7c-4.4-0.7-8.7-1.4-13.2-2.1
			c1.1-7.1,2.4-14,3.3-20.9c0.7-5.2-0.7-9.6-5.5-12.4c-3.4-2-5.7-1.5-6.7,2.5c-2.1,8.6-4.6,17.1-6.3,25.7c-0.8,3.9-1.9,5.9-6.2,5.8
			c-2.7-0.1-5.5,1.1-8.3,1.6c0.1,0.5,0.2,1,0.4,1.5c4-0.3,8-0.5,12.5-0.8c-0.3,2.5-0.7,4.3-0.8,6.1c-0.5,11.3-1.3,22.6-1.2,33.9
			c0,7.9-3.9,12.1-12.3,11.2c0.4-2.1,1-4.1,1.2-6.2c0.5-6,1.5-12,0.9-17.9c-1-10.3-9-16.2-18.3-14.5c-9.1,1.6-14.4,10.3-12.8,20
			c0.3,2.1-0.3,4.8-1.5,6.6c-4.7,6.6-6.1,13.5-3.1,21.2c0.6,1.4,0.8,3.4,0.4,4.8c-2.4,7.8-4.7,15.7-7.7,23.2
			c-1.2,2.8-4.4,4.8-6.7,7.1c-1.8-2.8-4.9-5.5-5.1-8.4c-1.3-16.1-2-32.2-2.8-48.3c-0.1-3.1,0.3-6.2,0.6-10.6
			c3.9,2.9,6.8,5.1,10.3,7.7c-0.9-5-4.3-6.7-7.3-9c-1.4-1.1-2.3-3.1-2.8-4.9c-0.4-1.5,0.1-3.3,0.2-5c0.9-13.1,1.9-26.3,2.7-39.4
			c0.3-6.2-3.9-11.1-9.4-11.4c-3.4-0.2-5.4,0.9-5.6,4.7c-0.2,4.8-0.7,9.6-1,14.5c-0.7,11.3-1.3,22.5-1.9,34c-5-0.4-9.8-0.8-14.5-1.1
			c0-4.9,0.2-9.5-0.1-14.1c-0.3-4.6-0.9-9.3-1.7-13.9c-1.3-6.7-4-12.7-9.4-17.2c-7.6-6.4-16.6-5.4-21.8,3.1c-2.8,4.6-4.5,10-6.6,15
			c-0.4,0.9-0.1,2-0.1,3.1c0.4,0.1,0.8,0.2,1.2,0.3c0.6-1.4,1.1-2.8,1.7-4.2c2-4.5,3.6-9.5,6.4-13.4c1.8-2.5,5.6-4.7,8.5-4.7
			c1.8,0,3.8,4.3,5.2,6.9c0.9,1.5,1.2,3.5,1.3,5.3c0.6,11.8,1.2,23.6,1.5,35.4c0,1.4-1.4,3.3-2.7,4.1c-13.1,8-19.2,20.1-20.4,34.8
			c-0.4,4.3,0.2,9.1,1.7,13.2c2.9,7.5,10.5,9.2,16.1,3.6c3.7-3.7,7.2-8.2,8.8-13.1c3.6-10.7,6.3-21.7,8.6-32.7
			c1.9-8.8,1.4-8.9,10.6-8c0.3,0,0.7,0.1,1,0.1c3.2,0.1,4.6,1.5,4.4,5c-0.3,6.1-0.6,12.4-0.1,18.5c1.1,12.9,2.2,25.9,4.2,38.7
			c0.8,5.2,3.6,10.4,6.6,14.9c3.7,5.4,9.4,5.4,13.5,0.3c3.2-4,5.7-8.6,7.7-13.3c2.8-6.5,4.8-13.4,7.2-20.2c13.8,8.2,21.1,6,28.5-8.4
			c0.6-1.1,1.8-2.2,3-2.7c3.9-1.6,8-2.8,12.4-4.4c0.2,1,0.4,2.6,0.9,4.2c3.3,9.9,5.6,20.3,10.2,29.6c5.3,10.9,13,10.9,20.2,1
			c3.6-4.9,6.1-10.6,9.2-16c0.1,0.1,0.6,0.3,0.9,0.7c10.3,12.1,22.9,11.8,32.6-0.9c2.3-3,4.3-6.1,6.9-9.7c0.4,1.4,0.6,2,0.7,2.6
			c2.2,8.9,3.6,18,6.9,26.5c2,5.1,6.3,9.8,10.7,13.2c5.1,4,10,2.5,13.7-2.9c2.2-3.3,4.4-6.8,5.5-10.6c4.9-15.9,9.4-31.9,14-47.9
			C313,297.4,312.8,296.5,312.8,295.6z M746.3,428.4c-0.3-0.4-0.7-0.8-1-1.1c-2,0-4,0-6,0c-209.1,0-418.2,0-627.3,0.1
			c-2.1,0-5.5-2.2-6.6,1.9c2.2,0.5,4.4,1.6,6.6,1.6c209.1,0.1,418.2,0.1,627.3,0.1c1.5,0,3.1,0.3,4.5-0.1
			C744.8,430.5,745.5,429.3,746.3,428.4z M115.7,165.3c0.2,0.4,0.3,0.8,0.5,1.2c2.1,0,4.2,0,6.3,0c204.2,0,408.3,0,612.5,0
			c1.7,0,3.4,0.2,5-0.1c0.8-0.1,1.4-1.2,2.1-1.8c-0.2-0.4-0.3-0.8-0.5-1.2c-2.1,0-4.2,0-6.3,0c-204.2,0-408.3,0-612.5,0
			c-1.7,0-3.4-0.2-5,0.1C117,163.7,116.4,164.7,115.7,165.3z M788.5,179.5c4.7,3.1,5.9,6.6,3.7,9.3c-1.8,2.2-6.7,2.5-9.2,0.5
			c-2.8-2.3-2.8-5.8,0.5-9.1c1.9-1.9,4.3-4,6.8-4.7c5.4-1.6,10.9-2.6,16.5-3.3c5.9-0.8,11.8-0.6,13.7,8.4c0.9-7.9,0.1-9.2-6.1-10.3
			c-2.6-0.5-5.3-0.2-7.9-0.4c-2.7-0.3-5.8-0.2-8-1.4c-1.7-1-2.6-3.7-3.2-5.9c-0.1-0.5,2.5-2.6,3.5-2.5c1.8,0.3,3.5,1.9,5.6,3.1
			c-0.1-0.8,0.3-2.6-0.4-3.4c-2.2-2.5-5.3-3-8.1-1c-2.7,1.9-4,4.6-1.9,7.8c1.1,1.6,2.6,2.9,4,4.5c-2.8,0.6-5.4,1-8,1.7
			c-2.7,0.7-5.4,2-8.1,2.2c-4.7,0.4-9.6,1.1-14.1,0.1c-5.3-1.1-8-6.4-6.7-10.6c1.4-4.2,7.7-7.6,12.3-6.1c1.4,0.4,2.3,2.2,3.4,3.4
			c-0.4,0.4-0.8,0.7-1.1,1.1c-0.5-0.1-0.9-0.2-1.4-0.2c-1.4-0.1-2.8-0.2-4.2-0.3c1,1.3,2,3.8,2.9,3.7c2.5-0.1,5.8-0.6,7.1-2.3
			c2.2-3,0.3-6-2.6-8c-5.5-3.9-15.2-1.3-19.1,5.1c-3.4,5.6-1.2,12.2,5.3,16c6.5,3.8,13.1,2.4,20.3,0.6c-3.4,4-6.4,7.7-2.7,12.3
			c2.5,3.1,6.3,3.8,9.4,1.7c2-1.5,3.7-4.7,3.8-7.2C794.7,181.6,793,178.6,788.5,179.5z M80.2,436.5c-0.5-1.7-0.6-3.3-0.9-3.4
			c-2.8-0.4-6.2-1.4-8.5-0.4c-2.8,1.3-2,6,0.9,8.6c3.9,3.5,10.6,3.2,16.1-0.6c6.9-4.9,7-13.1,0.3-18.4c-7.6-5.9-16-3.2-24-1.9
			c-7.4,1.2-14.5,4.1-21.9,5.7c-2.4,0.5-5.5-0.2-7.6-1.4c-1.9-1.1-3-3.7-4.7-5.9c-1.4,3.9-0.4,7.1,3.6,8.2c3.6,1,7.5,0.7,11.3,1.2
			c2.7,0.3,5.8,0.4,8,1.7c1.4,0.9,2.1,3.9,2,5.9c0,0.8-2.9,2.3-4.3,2.1c-1.4-0.2-2.5-2.2-4.5-4.1c0.3,1.7,0.1,3.7,1,4.6
			c2.4,2.4,5.5,2.4,8.1,0.3c2.6-2.2,2.9-5.1,0.9-8c-0.9-1.3-2-2.3-3.2-3.6c7-1.8,13.8-4.3,20.8-5c4.2-0.4,9.1,1.3,12.9,3.4
			c3.9,2.2,3.8,7,0.9,10.4c-3.3,3.9-9.3,5.3-12.4,2.7c-0.7-0.6-1-1.8-1.9-3.6C75.6,435.5,77.4,435.9,80.2,436.5z M24.8,412.7
			c-6.2-2.1-6.9-7-5.7-11.9c1.6-6.5,3.5-13.2,6.8-19.1c2.5-4.5,3.6-9.3,4.8-13.9c1.3-5.2,0.5-10.6-3.2-15.1
			c-4.1-4.9-10.4-5.4-15.4-1.2c-6.2,5.3-7.9,13.7-3.2,17.8c1.5,1.4,4.6,1.9,6.7,1.5c1.3-0.2,2.7-2.8,3-4.5c0.2-1.5-1.1-3.3-2-4.8
			c-0.2-0.3-1.5,0-2.2,0c0.2,1.5,0.4,3,0.5,4.6c0,0.3-0.3,0.5-1,1.7c-1.3-1.3-2.8-2.1-3.4-3.5c-1.4-3.4,2.1-9.4,6.4-11.2
			c3.8-1.6,8.1-0.5,9.4,3.8c1.3,4.4,1.8,9.5,0.7,13.8c-1.6,6.4-4.8,12.4-7.4,18.8c-3.4-4.9-7.4-7.1-10-4.7c-1.7,1.6-2.2,5-2.4,7.7
			c-0.1,0.9,2.5,1.9,4.6,3.4c-1.6-3.2-3.1-4.9-3-6.6c0-1.3,2.5-3.7,3.2-3.4c2,0.6,4.3,2,5.1,3.7c1,2,0.8,4.8,0.7,7.2
			c-0.1,3.1-1.1,6.3-0.9,9.4C16.9,411.7,19,413.3,24.8,412.7z M836.8,368.6c0-1.6,0.1-2.4,0-3.1c-0.1-1.2-0.3-2.4-0.5-3.6
			c-1.1,0.8-3.1,1.7-3,2.4c0.3,2.5,0.6,6,2.3,7.2c3,2.2,6,0.1,7.8-2.9c3.2-5.5-0.1-14.4-6.5-17.7c-5.7-3-11.8-0.3-15,6.3
			c-4,8,0,15.2,2.2,22.5c1.8,5.9,5.1,11.4,7.1,17.3c1,2.9,1.5,6.4,0.8,9.2c-0.6,2.5-3.2,4.6-4.7,6.7c5.6,0.6,8.7-3.7,7.6-10.7
			c-0.7-4-1.1-8.2-0.5-12.1c0.2-1.5,3.5-2.9,5.6-3.4c0.6-0.2,2.7,2.8,2.8,4.3c0,1.2-2,2.5-3.1,3.8c0.3,0.3,0.5,0.7,0.8,1
			c1.3-1.1,3.7-2.2,3.7-3.3c0-2.3-0.4-5.7-2-6.9c-4.7-3.5-7.6,0.5-10.3,4.2c-1.3-3.2-2.4-6-3.5-8.7c-1.1-2.8-2.7-5.4-3.3-8.3
			c-0.8-3.8-1.3-7.7-1-11.6c0.3-4.1,3-7.5,7.3-7.7c4.6-0.2,7.4,2.9,9,7.2C841.6,364.1,841.2,366.6,836.8,368.6z M828.6,338.2
			c0.5-0.1,1-0.1,1.4-0.2c0.2-1.2,0.5-2.4,0.5-3.6c0-23.5,0-46.9,0-70.4c0-1.2-0.9-2.4-1.4-3.6c-0.5,1.2-1.6,2.3-1.6,3.5
			c-0.1,23.5-0.1,46.9,0,70.4C827.6,335.6,828.2,336.9,828.6,338.2z M16.9,295.3c0,14.3,0,28.6,0.1,42.9c0,1.3,1.1,2.6,1.6,3.9
			c0.6-1.3,1.6-2.7,1.6-4c0.1-28.5,0.1-56.9,0-85.4c0-1.3-1.1-2.6-1.7-4c-0.5,1.3-1.6,2.7-1.6,4C16.9,267.1,16.9,281.2,16.9,295.3z
			 M509.7,268.9c1.7-5.9-3.1-12.6-10.2-14.3c-3.6-0.9-4.9,0.4-4.4,4.1C496.1,265.9,499.9,268.7,509.7,268.9z M721.1,256.1
			c0,8,3,10.8,11.6,12.8c3.5,0.8,4.2-0.7,3.8-3.6c-0.7-4.9-7.2-10.8-12.2-10.8C723,254.4,721.7,255.7,721.1,256.1z M30.7,375.9
			c3.7-1,7.4-2.1,9.4,2.4c1.3,3.1,0.9,6.4-2.5,8.1c-4.4,2.2-6.4-1-8.2-5c-1.4,4,0.7,5.7,3.2,6.5c3.1,0.9,6.4,0.8,8.2-2.6
			c1.8-3.5,2.1-7-1.1-9.9C36.6,372.6,33.6,372.9,30.7,375.9z M68.3,416.9c2.7-3.3,2.6-6.4-0.3-9.2c-2.7-2.6-7.8-2.7-10.4-0.2
			c-2.7,2.6-3.3,5.8-1,8.9c0.9,1.2,2.8,1.7,4.2,2.5c0.2-0.4,0.5-0.9,0.7-1.3c-3.8-0.9-5.5-3.3-4.3-6.8c1.1-3.5,4.2-4.2,7.3-3.4
			C69.5,408.8,69.8,412.5,68.3,416.9z M819.4,374.9c-4.9-1.5-7.9-0.2-9.1,3.4c-1.2,3.4-1,7.5,2.7,9.1c2.2,1,5.5,0,8.1-0.7
			c0.9-0.3,1.2-2.6,1.6-3.5c-2.7,1.5-5,3.9-7,3.7c-1.7-0.2-4.1-3.3-4.5-5.4C810.5,376.7,814.2,375.2,819.4,374.9z"/>
		<path d="M766.6,318.7c-8.2,8-8.7,8-17,1.7c-1.9,2.9-3.8,5.8-5.8,8.6c-6.6,9.1-16.8,12.3-23.2-0.9c-0.3-0.5-0.7-1-1.5-1.9
			c-2.2,6-4.2,11.7-6.4,17.2c-1.7,4.2-3.5,8.3-5.7,12.2c-3.3,5.8-8.8,5.9-11.6-0.3c-2.2-4.9-3.9-10.5-3.9-15.8
			c-0.2-12.8,0.6-25.6,1.1-38.4c0.2-5.8,0.7-11.6,0.8-17.5c0-2-0.7-4-1.1-6c-0.6-0.2-1.2-0.4-1.8-0.6c-1.8,2.5-4.1,4.8-5.4,7.6
			c-5.7,12-8.7,24.8-9.7,38.1c-0.3,3.7-0.6,6.6-5.2,7c-4.5,0.4-5.7-2.5-6.7-5.9c-0.4-1.4-0.8-2.8-2.1-4.5c-0.4,1.8-0.8,3.5-1.3,5.3
			c-3.1,11-6.1,22.2-9.5,33.1c-1.1,3.4-2.3,7.8-7.3,7.7c-5.3-0.2-9.1-3.4-10.1-8.3c-1.6-7.9-2.9-16.1-2.9-24.1
			c0.1-11.1,1.5-22.3,2.3-33.4c0.1-1.6,0.2-3.3,0.3-5.2c-4.3,0.3-7.4,1.5-9.3,5.6c-3.2,7-8.5,11.7-16.5,13c-1.6,0.3-3.4,2.3-4.2,4
			c-4.9,9.8-10.7,13.3-19.7,11.3c-6.3-1.4-9.8-5.9-12.3-11.7c-4,3.4-8,6.4-11.4,9.9c-0.9,0.9-0.8,3.6-0.2,5
			c7,15.8,11.9,32.2,12.8,49.6c0.1,1.5,0.1,3,0.1,4.5c-0.1,6.2-2.8,11.1-8.6,13.5c-5.8,2.5-12.4,2.8-16.8-2.2
			c-4.5-5.1-8.8-11.2-10.6-17.7c-3.4-12-5.1-24.4-7-36.7c-0.7-4.7-0.6-9.2-5.5-11.9c-1.5-0.8-2.3-2.7-3.5-4
			c-13.9,14-17.6,14-27.1-0.7c-0.7,2.1-1.3,3.7-1.9,5.2c-3.2,8-6,16.3-9.9,23.9c-4.1,7.9-10.9,8.7-17.7,2.8
			c-5.7-4.8-8.6-11.4-10.5-18.4c-1.6-5.6-2.7-11.3-4.3-18.2c-1.3,2.4-2,4.1-3.1,5.6c-3.2,4.5-5.9,9.3-9.8,13.1
			c-5.6,5.5-12.9,4.4-16.8-2.5c-2.5-4.4-3.4-9.6-4.9-14.5c-0.5-1.5-0.4-3.2-0.6-5.5c-4.7,5.2-8.9,10.5-16,4.6
			c-1.8,4.1-3.1,8-5.2,11.6c-2.5,4.3-5,8.7-8.4,12.3c-7.1,7.4-16.3,8-23.5,0.9c-5.5-5.4-10.5-11.8-13.7-18.7
			c-11-23-11.5-46.6-0.7-70c3.5-7.5,8.5-14,16-18.1c11.3-6.2,23.3-2.2,28,9.7c2,5.1,2.7,10.8,4,16.2c-0.6,0.2-1.1,0.3-1.7,0.5
			c-0.4-1-0.9-2-1.2-3.1c-1-3.8-1.7-7.8-3.1-11.6c-2.6-7-7.6-9.1-14.8-7c-7,2.1-11.8,7.1-13.3,13.8c-2.5,10.4-5.2,21.2-5,31.8
			c0.3,12.3,3.1,24.7,5.8,36.8c1,4.6,4.1,9.1,7.2,13c4.4,5.7,11.7,6.4,16,0.9c4.7-6,7.8-13.4,11.3-20.3c0.5-1-0.3-2.9-0.9-4.2
			c-6.4-16.5,9.5-37.8,27.2-36.4c5.6,0.5,8.8,4,8.8,9.8c-12.5-4-17.1-2.3-22.9,10.2c-2.4,5.3-3.1,11.4-4.2,17.2
			c-0.2,1.1,1.2,2.5,1.9,3.7c1.2-0.8,2.9-1.3,3.4-2.4c2.7-5.3,4.9-10.9,7.7-16.2c1.2-2.2,3.6-3.9,5.4-5.8c1.8,2,4.2,3.7,5.4,6
			c0.9,1.9,0.6,4.5,0.5,6.8c-0.4,6.8-1.5,13.6-1.4,20.4c0.1,2.8,2.6,5.6,4,8.4c2.8-1.4,6.4-2.1,8.3-4.4c6.6-8,10.6-16.5,9.4-27.8
			c-2.8-26.1,0.4-51.7,11.3-75.8c3.8-8.4,9.3-16.1,15-23.4c3.9-5,10.1-8.8,16.8-5.9c6.7,2.9,6.4,10.1,6,16.2
			c-0.5,10-4.8,18.8-10.5,26.7c-6.5,9.1-13.8,17.5-20.6,26.4c-1.3,1.7-2.4,4.1-2.4,6.1c0.2,22.7,2.6,45.2,7.7,67.4
			c0.4,1.9,0.9,3.9,1.8,5.7c0.8,1.5,2.1,3.6,3.3,3.6c1.4,0.1,3.4-1.5,4.2-2.9c6-10.9,10.4-22.2,11.1-34.8
			c0.6-10.1,1.7-20.2,2.7-30.4c0.4-3.7,3-4.1,5.9-3.4c4.2,1,7.2,5.2,7,10.3c-0.2,5.7-1.2,11.3-1.5,16.9c-0.2,4.6-0.2,9.3,0.1,13.9
			c0.2,3.4,1.8,6.2,5.8,6.2c3.2,0,7.5-4.6,7.2-7.7c-0.7-7.2,1.4-12.7,7.8-16.4c1.1-0.7,1.6-3.1,1.7-4.8c1.2-18.2,3.5-36.3,11.3-53
			c4.5-9.7,10.6-18.8,17.1-27.4c5-6.7,12.5-11,20.9-12.9c9.8-2.2,18.1,3.2,19.7,13.2c1.3,7.8-0.5,15.2-3.6,22.4
			c-8,18.3-22.3,31.3-37.2,43.8c-2.3,1.9-4.7,3.7-7.1,5.5c-7.9,5.8-8.5,12.3-2.2,19.7c3.4,4,6.3,8.5,9.9,13.2c4-3.5,8-7,11.9-10.6
			c0.8-0.7,1-2,1.5-3.1c2-4.8,4.1-9.6,6-14.5c0.6-1.5,0.7-3.4,0.4-5c-0.9-4.8-0.7-9.3,2.3-13.3c4.2-5.5,9.7-8.2,16.6-6.8
			c6.7,1.4,11.1,6.2,11.7,12.8c0.7,6.7-0.3,13.6-0.8,20.3c-0.1,1.8-0.7,3.5-1.1,5.3c7,1.1,12.4-2.8,16.5-12
			c-5.1-0.5-7.3-4.1-7.1-8.4c0.3-5.8,1.4-11.7,2.8-17.4c0.3-1.4,3.2-3.1,4.9-3c1.2,0,3,2.6,3.3,4.3c0.6,3.2,0.6,6.6,0.5,9.9
			c-0.1,3.3-0.7,6.6-1.1,10.5c3.6-1.2,6.7-2.5,9.9-3.4c6.3-1.8,10.3-0.1,11.9,6.2c1.4,5.4,2.1,11.2,1.8,16.8
			c-0.7,12.8-2.3,25.5-3.5,38.3c-0.2,2.2,0,4.4,0,6.6c0.5,0.1,1,0.3,1.6,0.4c0.9-1.6,2.2-3,2.8-4.7c6.3-20.4,12.7-40.8,11.8-62.5
			c-0.1-2.4-0.6-5-1.5-7.3c-1.4-3.7-0.1-4.8,3.5-4.9c6.3-0.1,10.5,2.7,12.4,8.7c0.5,1.7,0.9,3.5,1.4,5.9c2.7-4.7,4.8-9.2,7.7-13.1
			c1.9-2.5,4.6-5,7.5-6.1c4.1-1.6,9.5,1.6,10.3,6.3c1.2,6.3,1.9,12.9,1.4,19.2c-1,13.3-3,26.5-4.4,39.7c-0.4,3.6-0.4,7.3,0,11
			c0.1,1.6,1.5,3,2.3,4.5c1.3-1.1,3.3-1.9,3.9-3.3c2.8-6.2,5.5-12.5,7.8-18.9c2.4-6.6,3.8-13.2,3.7-20.4c-0.1-9.1,1.6-18.2,2.4-27.4
			c0.4-4,2.9-4.5,6-3.7c4.2,1.1,7.1,5.2,6.9,10.4c-0.3,5.7-1.3,11.3-1.5,16.9c-0.2,5-0.3,10,0.4,14.9c0.9,5.6,5.5,7,9.5,3
			c4-3.9,7.3-7.8,5.6-14.7c-3.6-15.2,12.2-32.9,27.8-32c5.9,0.3,9.3,3.9,9.3,9.8c-12.5-4-17.1-2.3-22.9,10.2
			c-2.4,5.3-3.1,11.4-4.2,17.2c-0.2,1.1,1.2,2.5,1.9,3.7c1.2-0.8,2.9-1.3,3.4-2.4c2.7-5.3,4.9-10.9,7.7-16.2
			c1.2-2.2,3.6-3.9,5.4-5.8c1.9,2,4.2,3.7,5.4,6c0.9,1.9,0.6,4.5,0.5,6.8c-0.4,6.8-1.5,13.6-1.4,20.4c0.1,2.8,2.6,5.6,4,8.4
			c2.8-1.4,7-2.1,8.2-4.4c5.6-10.3,10.5-21.1,15.5-31.7c0.9-1.9,1.4-3.9,3.1-5.5c0,0.9,0.3,1.9,0,2.6c-4.7,11.2-9.4,22.4-14.5,33.4
			c-1.2,2.6-3.5,4.9-5.7,6.9c-6.5,6-14.2,5-18.2-2.9C769.6,331.1,768.5,324.7,766.6,318.7z M544.3,291.1c4.9-3.9,10-7.6,14.7-11.7
			c12.1-10.3,23.4-21.4,30.3-36c3.5-7.3,5.7-15,3.9-23.2c-2.1-9.4-10.7-13.3-18.1-7.4c-6.3,5-12.2,11-16.4,17.7
			C547.5,248.7,544.7,269.4,544.3,291.1z M555.1,330.6c-10.5,5.2-10.5,5.2-9,15.7c0.3,2,0.4,4,0.9,5.9c3.4,11.9,6.7,23.9,10.5,35.7
			c0.9,2.8,2.9,6.1,6.9,5.1c4-1,4.6-4.3,4.6-7.9C568.7,366,562.8,348.3,555.1,330.6z M464.1,266.7c10.5-11.3,20.6-22.8,26.7-37
			c1.4-3.2,2.3-6.6,2.6-10.1c0.6-5.6-3.9-8.8-9-6.3c-2.7,1.4-5.3,3.6-7,6.1C467.7,233.6,465,249.9,464.1,266.7z M581.3,291.7
			c1.9-1,3.5-2.3,5.2-2.7c2.4-0.5,4.9-0.4,7.4-0.5c-1,1.9-1.8,4-3.1,5.6c-6.4,7.8-5.7,10.9,3.8,14.7c1.8,0.7,3.8,1.2,5.8,1.4
			c0.9,0.1,2.5-0.7,2.7-1.4c2.6-8.6,5-17.4,1.9-26.4c-2.3-6.6-9.4-9.7-15.9-7.4C581.7,277.7,578.8,283.7,581.3,291.7z M601.9,313.4
			c-3.3-1-6.2-1.6-8.9-2.7c-2.8-1.1-5.4-2.8-8.1-4.2c-0.5,0.2-0.9,0.5-1.4,0.7c1.4,4.8,2.2,9.9,4.3,14.4c2.2,4.7,6.4,4.7,9.4,0.5
			C598.9,319.7,600.1,316.7,601.9,313.4z M625,280.9c-0.3-2.1-0.4-4.5-1.2-6.6c-0.3-0.8-3.3-1.5-3.9-0.9c-3.2,2.9-4.1,16-1.4,19.5
			c0.7,0.9,2.1,1.6,3.3,1.6c0.5,0,1.5-1.6,1.7-2.6C624.1,288.4,624.5,284.8,625,280.9z M554.4,327.1c-3.6-4.9-6.7-9.3-9.9-13.6
			c-0.4,0.2-0.8,0.5-1.2,0.7c0.4,5.7,0.7,11.4,1.1,18.1C548.2,330.3,550.9,328.9,554.4,327.1z M527.6,314c-5.7,7-5.6,9.8,0,13.5
			C527.6,323.1,527.6,318.8,527.6,314z"/>
		<path d="M312.8,295.6c0,0.9,0.2,1.8,0,2.7c-4.6,16-9.1,32-14,47.9c-1.2,3.7-3.3,7.3-5.5,10.6c-3.6,5.4-8.6,6.9-13.7,2.9
			c-4.4-3.4-8.7-8.2-10.7-13.2c-3.3-8.4-4.7-17.6-6.9-26.5c-0.1-0.6-0.3-1.2-0.7-2.6c-2.6,3.6-4.7,6.7-6.9,9.7
			c-9.8,12.7-22.3,13-32.6,0.9c-0.3-0.4-0.8-0.6-0.9-0.7c-3,5.4-5.6,11-9.2,16c-7.2,9.9-14.9,9.8-20.2-1
			c-4.5-9.3-6.9-19.7-10.2-29.6c-0.5-1.5-0.7-3.1-0.9-4.2c-4.4,1.5-8.4,2.8-12.4,4.4c-1.2,0.5-2.4,1.6-3,2.7
			c-7.4,14.4-14.7,16.6-28.5,8.4c-2.4,6.8-4.4,13.6-7.2,20.2c-2,4.7-4.6,9.3-7.7,13.3c-4,5.1-9.8,5.1-13.5-0.3
			c-3-4.4-5.8-9.7-6.6-14.9c-2.1-12.8-3.2-25.7-4.2-38.7c-0.5-6.1-0.3-12.3,0.1-18.5c0.2-3.5-1.2-4.9-4.4-5c-0.3,0-0.7,0-1-0.1
			c-9.2-0.9-8.7-0.8-10.6,8c-2.3,11-5.1,22.1-8.6,32.7c-1.6,4.8-5.1,9.4-8.8,13.1c-5.6,5.6-13.3,3.9-16.1-3.6
			c-1.5-4-2.1-8.8-1.7-13.2c1.2-14.7,7.3-26.8,20.4-34.8c1.3-0.8,2.7-2.7,2.7-4.1c-0.3-11.8-0.9-23.6-1.5-35.4
			c-0.1-1.8-0.4-3.8-1.3-5.3c-1.5-2.6-3.5-6.9-5.2-6.9c-2.9,0-6.7,2.2-8.5,4.7c-2.9,4-4.4,8.9-6.4,13.4c-0.6,1.4-1.1,2.8-1.7,4.2
			c-0.4-0.1-0.8-0.2-1.2-0.3c0-1-0.3-2.2,0.1-3.1c2.1-5.1,3.7-10.4,6.6-15c5.2-8.5,14.1-9.4,21.8-3.1c5.4,4.5,8.1,10.5,9.4,17.2
			c0.9,4.6,1.5,9.2,1.7,13.9c0.3,4.6,0.1,9.3,0.1,14.1c4.8,0.4,9.5,0.7,14.5,1.1c0.6-11.4,1.2-22.7,1.9-34c0.3-4.8,0.8-9.6,1-14.5
			c0.1-3.8,2.2-4.9,5.6-4.7c5.5,0.3,9.8,5.2,9.4,11.4c-0.7,13.1-1.8,26.3-2.7,39.4c-0.1,1.7-0.6,3.4-0.2,5c0.5,1.8,1.4,3.8,2.8,4.9
			c2.9,2.3,6.3,4,7.3,9c-3.6-2.7-6.4-4.8-10.3-7.7c-0.3,4.5-0.7,7.5-0.6,10.6c0.8,16.1,1.5,32.2,2.8,48.3c0.2,2.9,3.4,5.6,5.1,8.4
			c2.3-2.4,5.6-4.3,6.7-7.1c3.1-7.5,5.4-15.4,7.7-23.2c0.4-1.4,0.2-3.4-0.4-4.8c-3.1-7.7-1.6-14.6,3.1-21.2c1.2-1.7,1.9-4.5,1.5-6.6
			c-1.6-9.8,3.7-18.4,12.8-20c9.3-1.7,17.3,4.3,18.3,14.5c0.6,5.9-0.5,11.9-0.9,17.9c-0.2,2.1-0.8,4.1-1.2,6.2
			c8.4,0.9,12.4-3.3,12.3-11.2c-0.1-11.3,0.7-22.6,1.2-33.9c0.1-1.8,0.4-3.6,0.8-6.1c-4.5,0.3-8.5,0.6-12.5,0.8
			c-0.1-0.5-0.2-1-0.4-1.5c2.8-0.6,5.5-1.7,8.3-1.6c4.4,0.1,5.5-1.9,6.2-5.8c1.7-8.6,4.1-17.1,6.3-25.7c1-4,3.3-4.5,6.7-2.5
			c4.8,2.9,6.2,7.3,5.5,12.4c-0.9,6.9-2.2,13.8-3.3,20.9c4.4,0.7,8.8,1.4,13.2,2.1c-0.1,0.6-0.1,1.1-0.2,1.7
			c-3.3-0.2-6.7-0.2-9.9-0.7c-2.6-0.4-3.9,0.1-4.5,3c-4.7,24.6-3.6,49.1,1.2,73.5c0.7,3.5,3.3,8.6,6,9.3c4.6,1.2,6.5-4.2,8.5-7.7
			c3.8-7,6.7-13.9,5.3-22.7c-1.8-11.2,3.6-20.1,13.3-26c5.7-3.5,11.7-3.1,14.7,0.4c3.8,4.6,3.7,11.6-1.2,16.3
			c-3.4,3.4-7.4,6.2-11.5,8.6c-2.6,1.6-3.6,2.9-2.4,5.9c2.1,5.3,3.8,11.3,10.4,12.3c6,1,9.7-3.6,13.1-7.8c4.7-5.8,7.2-12.1,6.5-20.2
			c-2.3-25.4,0.9-50.4,11.5-73.8c3.8-8.4,9.3-16.1,15-23.4c3.9-5,10.1-8.7,16.8-5.8c6.7,3,6.3,10.1,6,16.2
			c-0.6,9.9-4.9,18.7-10.5,26.6c-6.4,8.9-13.6,17.2-20.3,26c-1.4,1.8-2.7,4.3-2.7,6.5c0.2,22.7,2.6,45.2,7.7,67.4
			c0.4,1.8,0.8,3.6,1.6,5.2c0.9,1.6,2.3,4,3.5,4c1.5,0,3.6-1.8,4.4-3.3c2.4-4.7,4.9-9.5,6.4-14.6c3.6-11.6,6.7-23.4,10-35.1
			c0.5-1.6,1.1-3.2,1.6-4.8C312,295.4,312.4,295.5,312.8,295.6z M277.1,266.7c10.2-10.9,20-22,26.1-35.7c1.5-3.4,2.7-7.2,3.2-10.9
			c0.9-6.2-3.9-9.5-9.4-6.6c-2.3,1.2-4.4,3.1-5.9,5.2C280.8,233,278.1,249.6,277.1,266.7z M68.6,285.5c-0.5-0.3-1-0.6-1.5-0.9
			c-3.2,3-6.9,5.6-9.5,8.9c-7.5,9.6-10.9,20.5-8.9,32.7c0.6,3.8,2.8,8.1,7.1,7.6c2.3-0.2,5.5-3.8,6.2-6.4c2.2-8.3,3.7-16.8,5-25.4
			C68,296.6,68.2,291.1,68.6,285.5z M142.9,291.5c1.6-0.8,3.1-1.9,4.8-2.3c2.4-0.6,5-0.7,7.5-1c-1,2-1.6,4.3-3,5.9
			c-6.3,7.7-5.5,11,3.9,14.7c1.7,0.7,3.5,1.2,5.3,1.3c1.1,0.1,2.9-0.6,3.2-1.4c2.6-8.6,5.1-17.4,1.9-26.4c-2.3-6.6-9.4-9.7-15.9-7.4
			C143.2,277.6,140.3,283.6,142.9,291.5z M228.6,311.8c0.7,0.5,1.4,0.9,2.1,1.4c4.1-3.4,8.5-6.5,12.3-10.2c2.6-2.6,3.6-6.6,0.5-9.3
			c-3.1-2.8-6.6-0.9-9.4,1.3c-1.3,1.1-2.6,2.8-3,4.4C230,303.4,229.4,307.6,228.6,311.8z M163.2,313.8c-6.3-2.5-11.6-4.6-16.8-6.7
			c-1,4.7,0.4,11.8,3.1,15.3c2.7,3.6,6,3.9,8.7,0.3C160.2,320.1,161.6,316.8,163.2,313.8z"/>
		<path d="M746.3,428.4c-0.8,0.8-1.5,2.1-2.5,2.4c-1.4,0.4-3,0.1-4.5,0.1c-209.1,0-418.2,0-627.3-0.1c-2.2,0-4.4-1-6.6-1.6
			c1.1-4.2,4.5-1.9,6.6-1.9c209.1-0.1,418.2-0.1,627.3-0.1c2,0,4,0,6,0C745.7,427.7,746,428.1,746.3,428.4z"/>
		<path d="M115.7,165.3c0.7-0.6,1.3-1.6,2.1-1.8c1.6-0.3,3.3-0.1,5-0.1c204.2,0,408.3,0,612.5,0c2.1,0,4.2,0,6.3,0
			c0.2,0.4,0.3,0.8,0.5,1.2c-0.7,0.6-1.3,1.7-2.1,1.8c-1.6,0.3-3.3,0.1-5,0.1c-204.2,0-408.3,0-612.5,0c-2.1,0-4.2,0-6.3,0
			C116,166.1,115.8,165.7,115.7,165.3z"/>
		<path d="M788.5,179.5c4.5-0.9,6.2,2.1,6.1,4.6c-0.1,2.5-1.8,5.8-3.8,7.2c-3,2.2-6.9,1.4-9.4-1.7c-3.7-4.6-0.7-8.3,2.7-12.3
			c-7.2,1.8-13.9,3.2-20.3-0.6c-6.5-3.8-8.7-10.4-5.3-16c3.9-6.3,13.5-9,19.1-5.1c2.8,2,4.8,5.1,2.6,8c-1.2,1.7-4.6,2.1-7.1,2.3
			c-0.9,0.1-1.9-2.4-2.9-3.7c1.4,0.1,2.8,0.2,4.2,0.3c0.5,0,0.9,0.2,1.4,0.2c0.4-0.4,0.8-0.7,1.1-1.1c-1.1-1.2-2-3-3.4-3.4
			c-4.6-1.5-11,1.9-12.3,6.1c-1.3,4.2,1.3,9.4,6.7,10.6c4.5,0.9,9.4,0.3,14.1-0.1c2.7-0.3,5.4-1.6,8.1-2.2c2.6-0.6,5.2-1.1,8-1.7
			c-1.4-1.6-2.9-2.9-4-4.5c-2.1-3.1-0.7-5.9,1.9-7.8c2.8-2,5.8-1.5,8.1,1c0.7,0.8,0.4,2.6,0.4,3.4c-2.1-1.3-3.8-2.8-5.6-3.1
			c-1.1-0.2-3.7,2-3.5,2.5c0.6,2.2,1.5,4.9,3.2,5.9c2.2,1.3,5.3,1.2,8,1.4c2.6,0.3,5.3,0,7.9,0.4c6.2,1.1,7,2.4,6.1,10.3
			c-1.9-9-7.7-9.2-13.7-8.4c-5.6,0.7-11.1,1.8-16.5,3.3c-2.5,0.7-4.9,2.8-6.8,4.7c-3.3,3.3-3.3,6.8-0.5,9.1c2.4,1.9,7.4,1.7,9.2-0.5
			C794.4,186.1,793.2,182.6,788.5,179.5z"/>
		<path d="M820.1,222.3c7.2-7.1,9.6-16.4,11.7-25.7c1.2-5.3-1-8.8-6.1-10.8c3.8-2.2,7.8-0.2,8.2,4.3c0.3,2.9-0.3,5.9-0.4,8.9
			c-0.1,3-1,6.2-0.1,8.8c0.7,1.9,3.6,3,5.6,4.5c1.1-1.6,2.7-3,3-4.7c0.2-0.9-1.7-2.3-3.9-4.8c2.6,1,5.2,1.3,5.4,2.2
			c0.9,3.2,1.2,6.7-2.6,8.7c-3.7,1.9-7,0-9.6-5.8c-2.9,7.3-6,14.2-8.3,21.4c-0.9,2.8-0.6,6.2,0,9.2c1.1,5.2,5.1,8.2,8.9,7.6
			c4.6-0.8,8.9-6.3,8.2-11c-0.2-1.5-1.7-2.8-2.6-4.2c-0.5,0.3-1,0.5-1.5,0.8c0.3,1.7,0.6,3.3,1.1,6.5c-2.2-1.3-4.1-1.9-4.3-2.8
			c-0.4-2.1-0.5-4.7,0.4-6.5c0.7-1.2,3.4-2,5-1.8c5.2,0.8,7.4,7.3,5,13.4c-2.4,6.1-8.4,10.3-13.2,9.5c-6-1-10.9-7.1-10.9-14.3
			c0-3.7,1.5-7.4,2.1-11.1c0.1-0.7-0.9-1.5-1.4-2.3C820,222.2,820.1,222.3,820.1,222.3z"/>
		<path d="M80.2,436.5c-2.8-0.6-4.6-1-7.4-1.6c0.9,1.8,1.2,3,1.9,3.6c3.1,2.5,9.1,1.2,12.4-2.7c2.9-3.4,3-8.2-0.9-10.4
			c-3.8-2.1-8.7-3.8-12.9-3.4c-7,0.7-13.7,3.2-20.8,5c1.2,1.3,2.3,2.4,3.2,3.6c2,2.9,1.7,5.8-0.9,8c-2.6,2.2-5.7,2.2-8.1-0.3
			c-0.9-0.9-0.7-2.9-1-4.6c2,2,3.1,3.9,4.5,4.1c1.4,0.2,4.3-1.3,4.3-2.1c0-2-0.6-5-2-5.9c-2.2-1.3-5.3-1.4-8-1.7
			c-3.8-0.5-7.7-0.2-11.3-1.2c-4-1.1-5-4.3-3.6-8.2c1.7,2.2,2.8,4.8,4.7,5.9c2.2,1.2,5.3,1.9,7.6,1.4c7.4-1.6,14.5-4.4,21.9-5.7
			c8-1.3,16.4-4.1,24,1.9c6.7,5.2,6.7,13.5-0.3,18.4c-5.5,3.8-12.2,4.1-16.1,0.6c-2.9-2.6-3.7-7.3-0.9-8.6c2.3-1,5.6,0,8.5,0.4
			C79.6,433.1,79.7,434.7,80.2,436.5z"/>
		<path d="M74.6,176.7c-4.7-2.5-9.2-5.3-14-7.5c-3.4-1.5-7.2-2.4-10.9-3.2c-6.6-1.5-8.9-0.4-12.2,5.3c-1-5.2,0.9-7.8,6-7.9
			c2.8-0.1,5.6,0.8,8.4,0.8c3.2,0,6.7,0,9.6-1.1c1.3-0.5,2.1-3.4,2.3-5.3c0.1-0.8-2.4-2.4-3.6-2.4c-1.5,0.1-2.9,1.6-5.3,3
			c0.7-1.7,1-3.8,2.2-4.6c2.7-1.8,7.2-0.1,8.5,2.8c1.6,3.6-0.3,6.8-6.3,9.3c8.6,3.2,16.4,6.6,24.5,8.9c2.8,0.8,6.6-0.6,9.5-2
			c4.1-1.9,5.1-6.2,3.2-10.2c-2.1-4.1-8.4-7.1-11.8-5.3c-1,0.5-1.5,1.8-2.8,3.3c1.6,0.2,2.4,0.3,3.1,0.5c1.3,0.3,2.6,0.6,3.9,0.8
			c-1.1,1-2.4,3.1-3.4,2.9c-2.3-0.4-5.7-1.2-6.4-2.9c-0.8-1.7,0.4-5.3,1.9-6.8c4.3-4.2,13.4-1.9,17.9,4.1c4,5.3,2.8,12-2.7,15.6
			c-5.6,3.7-11.4,4-17.6,1.6c-1.4-0.5-2.9-0.4-4.4-0.6c0,0.1,0,0.3,0.1,0.4C74.3,176.5,74.4,176.7,74.6,176.7L74.6,176.7z"/>
		<path d="M30.4,213.9c0.2,3.1,0.4,6.1,0.6,9.2c0.1,1.3,0.1,2.7-0.1,4c-1.3,6.1-4.2,10.9-10.6,12.6c-4.7,1.2-8-1.4-10.6-4.7
			c-4.1-5.2-4.7-10.6-1.9-15.2c1.9-3.2,6.5-4.8,9-2.8c2.8,2.2,3,5.1,1,8c-0.7,0.9-2.3,1.2-3.4,1.8c0.1-1.2,0.1-2.5,0.3-3.7
			c0.1-0.6,0.3-1.3,0.4-2.1c-4-1.1-4.7,1.6-5.1,4.1c-0.6,4.4,3.2,9.6,7.3,10.6c4,1,7.9-1.1,9.5-6c1.1-3.5,1.6-7.6,1-11.2
			c-1.1-6.5-3.3-12.8-5.1-19.6c-2.7,4.2-6.4,6.5-10.5,3.5c-1.6-1.1-1.6-5-1.4-7.5c0.1-1,2.8-1.8,4.3-2.7c0.2,0.4,0.4,0.8,0.6,1.1
			c-1.2,1-3.3,1.9-3.5,3.1c-0.2,1.6,0.6,4.5,1.7,4.9c1.6,0.6,4.6,0,5.5-1.2c1.5-1.9,2.1-4.8,2.5-7.3c0.4-2.9,0-6,0.1-9
			c0.3-6.1,2.7-8,7.9-7.3c-1.7,2.1-4.6,4.3-5.6,7.2c-1,3-0.7,6.7,0.1,9.8c1.7,6.3,4.1,12.4,6.1,18.6
			C30.8,212.6,30.5,213.3,30.4,213.9L30.4,213.9z"/>
		<path d="M24.8,412.7c-5.9,0.7-8-0.9-8.2-6.4c-0.1-3.1,0.8-6.2,0.9-9.4c0.1-2.4,0.3-5.1-0.7-7.2c-0.8-1.7-3.1-3.1-5.1-3.7
			c-0.7-0.2-3.1,2.2-3.2,3.4c-0.1,1.7,1.5,3.4,3,6.6c-2.1-1.5-4.6-2.6-4.6-3.4c0.2-2.7,0.6-6,2.4-7.7c2.6-2.4,6.6-0.2,10,4.7
			c2.6-6.3,5.8-12.3,7.4-18.8c1.1-4.3,0.6-9.5-0.7-13.8c-1.3-4.3-5.6-5.4-9.4-3.8c-4.2,1.8-7.8,7.8-6.4,11.2
			c0.5,1.3,2.1,2.2,3.4,3.5c0.7-1.2,1-1.5,1-1.7c-0.1-1.5-0.3-3.1-0.5-4.6c0.8,0,2-0.3,2.2,0c0.9,1.5,2.2,3.3,2,4.8
			c-0.2,1.7-1.7,4.3-3,4.5c-2.1,0.4-5.2-0.1-6.7-1.5c-4.7-4.2-3-12.6,3.2-17.8c4.9-4.2,11.3-3.7,15.4,1.2c3.7,4.5,4.5,9.9,3.2,15.1
			c-1.2,4.7-2.3,9.4-4.8,13.9c-3.3,5.8-5.2,12.5-6.8,19.1C17.9,405.6,18.6,410.6,24.8,412.7z"/>
		<path d="M836.8,368.6c4.5-2,4.8-4.5,3.4-8c-1.7-4.3-4.4-7.4-9-7.2c-4.3,0.2-7,3.6-7.3,7.7c-0.3,3.8,0.2,7.8,1,11.6
			c0.6,2.9,2.2,5.5,3.3,8.3c1.1,2.7,2.2,5.5,3.5,8.7c2.7-3.7,5.6-7.7,10.3-4.2c1.6,1.2,2,4.5,2,6.9c0,1.1-2.4,2.2-3.7,3.3
			c-0.3-0.3-0.5-0.7-0.8-1c1.1-1.3,3.2-2.6,3.1-3.8c-0.1-1.6-2.2-4.5-2.8-4.3c-2.1,0.6-5.3,2-5.6,3.4c-0.6,3.9-0.1,8.1,0.5,12.1
			c1.2,7-1.9,11.3-7.6,10.7c1.6-2.1,4.1-4.1,4.7-6.7c0.7-2.9,0.2-6.4-0.8-9.2c-2.1-5.9-5.3-11.3-7.1-17.3
			c-2.2-7.2-6.2-14.4-2.2-22.5c3.2-6.6,9.3-9.3,15-6.3c6.4,3.4,9.7,12.2,6.5,17.7c-1.8,3-4.7,5.1-7.8,2.9c-1.7-1.2-1.9-4.7-2.3-7.2
			c-0.1-0.6,2-1.6,3-2.4c0.2,1.2,0.4,2.4,0.5,3.6C836.8,366.2,836.8,367,836.8,368.6z"/>
		<path d="M784,416.3c8.3,8,18.8,9.2,29.5,8.7c3-0.1,5.8-3.5,8.3-5.1c0.8,4.5-1,6.9-6.7,7.3c-2.7,0.2-5.3-0.1-8,0.1
			c-2,0.1-4.3,0-5.7,1c-1.9,1.4-3.2,3.6-4.2,5.8c-0.2,0.5,2.1,3.1,3,2.9c1.9-0.4,3.6-1.8,6.9-3.7c-1.6,2.4-2.3,4.7-3.7,5.3
			c-3,1.5-6,0.6-7.6-2.6c-2.1-4.5,0.4-7.2,5.2-9.6c-8.9-1.9-16.9-3.9-25.1-5c-2.7-0.4-5.9,1-8.4,2.4c-4,2.2-5,6.7-2.8,10.3
			c2.2,3.7,8.2,6,11.6,4.5c1.5-0.6,3-1.1,4.6-1.6c-0.7-0.9-1.4-1.7-2.1-2.6c-1,0.2-1.9,0.5-2.9,0.5c-1.1,0-2.2-0.2-3.4-0.3
			c0.4-1,0.7-2.7,1.3-2.7c2.6-0.3,5.8-1.2,7.6,0c2.8,1.9,2.2,5.2-0.1,7.8c-4,4.5-12.4,4-17.9-1.2c-4.6-4.3-4.7-11-0.1-15.5
			c4.7-4.5,10.5-5.4,16.7-4.5c1.5,0.2,2.9,0.6,4.7,1c-0.2-1.4-0.4-2.4-0.5-3.4L784,416.3z"/>
		<path d="M828.6,338.2c-0.4-1.3-1.1-2.6-1.1-3.9c-0.1-23.5-0.1-46.9,0-70.4c0-1.2,1-2.3,1.6-3.5c0.5,1.2,1.4,2.4,1.4,3.6
			c0.1,23.5,0.1,46.9,0,70.4c0,1.2-0.4,2.4-0.5,3.6C829.6,338.1,829.1,338.2,828.6,338.2z"/>
		<path d="M16.9,295.3c0-14.1,0-28.3,0.1-42.4c0-1.3,1-2.7,1.6-4c0.6,1.3,1.7,2.6,1.7,4c0.1,28.5,0.1,56.9,0,85.4
			c0,1.3-1.1,2.7-1.6,4c-0.6-1.3-1.6-2.6-1.6-3.9C16.9,324,16.9,309.7,16.9,295.3z"/>
		<path d="M509.7,268.9c-9.8-0.2-13.6-2.9-14.5-10.2c-0.5-3.7,0.8-4.9,4.4-4.1C506.6,256.3,511.4,262.9,509.7,268.9z"/>
		<path d="M721.1,256.1c0.6-0.4,1.9-1.6,3.1-1.6c5,0,11.5,6,12.2,10.8c0.4,2.9-0.2,4.4-3.8,3.6C724.1,266.9,721.1,264.1,721.1,256.1
			z"/>
		<path d="M820,222.2c-2.9,3.7-6.4,3.2-9.4,0.7c-3.2-2.7-3.4-6.4-1.2-9.9c2-3,4.7-4.7,8.4-2.9c2.4,1.2,5.1,2.5,3,7.2
			c-1-5.1-3.5-7.4-7.7-5.9c-3.7,1.4-3.9,5-3,8c1.7,5.6,6.1,3.5,9.9,2.7C820.1,222.3,820,222.2,820,222.2z"/>
		<path d="M30.7,375.9c2.9-2.9,6-3.3,9.1-0.5c3.2,2.9,2.9,6.5,1.1,9.9c-1.8,3.5-5.1,3.6-8.2,2.6c-2.5-0.8-4.6-2.5-3.2-6.5
			c1.8,3.9,3.8,7.2,8.2,5c3.4-1.7,3.8-5,2.5-8.1C38.1,373.7,34.4,374.9,30.7,375.9z"/>
		<path d="M74.5,176.8c2.8,6,1.9,9.8-2.7,11.6c-4.1,1.6-9.1-0.4-10-4.6c-0.4-2.1,0.6-4.7,1.6-6.7c0.5-1,2.6-1.2,3.4-1.5
			c-1.3,2.8-3.6,5.4-3.4,7.8c0.1,1.5,4,3.5,6.4,3.7c3.6,0.4,5.8-3,5.1-6.7C74.7,179.2,74.7,178,74.5,176.8
			C74.6,176.7,74.5,176.8,74.5,176.8z"/>
		<path d="M30.4,213.9c1,0.2,2.2,0.1,3.1,0.5c3.4,1.7,6.5,1.9,8.5-1.8c1.6-3.1,1.3-6.3-1.9-8.2c-3.9-2.4-6.4-0.1-7.9,3.8
			c-0.4-0.4-0.8-0.8-1.2-1.1c1.1-1.4,1.8-3.5,3.2-4.1c3.3-1.5,6.7-1.2,8.7,2.3c2,3.4,2,7-1.1,10c-2.8,2.7-5.9,2.7-8.9,0.3
			C32.1,214.9,31.3,214.4,30.4,213.9C30.4,213.9,30.4,213.9,30.4,213.9z"/>
		<path d="M68.3,416.9c1.5-4.4,1.2-8.1-3.8-9.4c-3.1-0.8-6.2-0.1-7.3,3.4c-1.2,3.6,0.5,6,4.3,6.8c-0.2,0.4-0.5,0.9-0.7,1.3
			c-1.4-0.8-3.3-1.3-4.2-2.5c-2.3-3.1-1.8-6.3,1-8.9c2.7-2.6,7.8-2.5,10.4,0.2C70.9,410.5,71,413.6,68.3,416.9z"/>
		<path d="M784.1,416.2c-3.3-1.9-2.6-4.7-1.1-7.1c2-3.1,5.3-5.1,8.8-2.9c2.2,1.4,4.4,4.2,4.7,6.6c0.3,2.6-1.2,5.9-5.4,5.4
			c0.1-0.4,0-0.8,0.1-0.8c3.4-1.5,5-4,3.3-7.5c-1.6-3.4-5-3.2-7.8-2.2c-3.2,1.1-4.5,3.8-2.9,7.2c0.2,0.4,0.1,1,0.2,1.5
			C784,416.3,784.1,416.2,784.1,416.2z"/>
		<path d="M819.4,374.9c-5.2,0.3-8.9,1.8-8.2,6.6c0.3,2.1,2.7,5.2,4.5,5.4c2,0.2,4.4-2.2,7-3.7c-0.4,0.8-0.7,3.2-1.6,3.5
			c-2.6,0.8-5.9,1.7-8.1,0.7c-3.7-1.6-3.9-5.7-2.7-9.1C811.5,374.7,814.4,373.4,819.4,374.9z"/>
		<path class="st0" d="M544.3,291.1c0.4-21.7,3.2-42.4,14.4-60.5c4.2-6.7,10.1-12.8,16.4-17.7c7.4-5.9,16-2,18.1,7.4
			c1.8,8.2-0.4,15.9-3.9,23.2c-6.9,14.6-18.2,25.7-30.3,36C554.3,283.5,549.2,287.2,544.3,291.1z"/>
		<path class="st0" d="M555.1,330.6c7.7,17.7,13.6,35.4,13.9,54.6c0.1,3.5-0.6,6.9-4.6,7.9c-4.1,1-6-2.2-6.9-5.1
			c-3.7-11.8-7.1-23.8-10.5-35.7c-0.5-1.9-0.6-3.9-0.9-5.9C544.6,335.8,544.6,335.8,555.1,330.6z"/>
		<path class="st0" d="M464.1,266.7c0.9-16.8,3.6-33.1,13.4-47.3c1.7-2.5,4.3-4.7,7-6.1c5.1-2.6,9.6,0.6,9,6.3
			c-0.4,3.4-1.3,6.9-2.6,10.1C484.7,244,474.6,255.4,464.1,266.7z"/>
		<path class="st0" d="M581.3,291.7c-2.5-8,0.4-14,7.7-16.6c6.5-2.3,13.6,0.7,15.9,7.4c3.1,9,0.7,17.8-1.9,26.4
			c-0.2,0.7-1.8,1.5-2.7,1.4c-2-0.2-3.9-0.7-5.8-1.4c-9.5-3.8-10.2-6.9-3.8-14.7c1.3-1.6,2.1-3.7,3.1-5.6c-2.5,0.2-5,0-7.4,0.5
			C584.8,289.4,583.2,290.6,581.3,291.7z"/>
		<path class="st0" d="M601.9,313.4c-1.8,3.3-3,6.2-4.8,8.8c-3,4.3-7.2,4.2-9.4-0.5c-2.1-4.5-2.9-9.6-4.3-14.4
			c0.5-0.2,0.9-0.5,1.4-0.7c2.7,1.4,5.3,3,8.1,4.2C595.7,311.9,598.6,312.5,601.9,313.4z"/>
		<path class="st0" d="M625,280.9c-0.5,3.9-0.9,7.5-1.6,11.1c-0.2,1-1.1,2.6-1.7,2.6c-1.1,0-2.6-0.7-3.3-1.6
			c-2.6-3.5-1.8-16.6,1.4-19.5c0.6-0.5,3.6,0.1,3.9,0.9C624.7,276.4,624.7,278.8,625,280.9z"/>
		<path class="st0" d="M554.4,327.1c-3.5,1.8-6.2,3.2-10,5.2c-0.4-6.7-0.8-12.4-1.1-18.1c0.4-0.2,0.8-0.5,1.2-0.7
			C547.7,317.8,550.8,322.2,554.4,327.1z"/>
		<path class="st0" d="M527.6,314c0,4.8,0,9.2,0,13.5C522.1,323.8,522,321,527.6,314z"/>
		<path class="st0" d="M277.1,266.7c1-17.1,3.7-33.7,13.9-48c1.5-2.1,3.7-4,5.9-5.2c5.5-2.9,10.3,0.4,9.4,6.6
			c-0.5,3.7-1.6,7.5-3.2,10.9C297.1,244.7,287.3,255.8,277.1,266.7z"/>
		<path class="st0" d="M68.6,285.5c-0.5,5.5-0.6,11.1-1.5,16.6c-1.4,8.5-2.8,17.1-5,25.4c-0.7,2.6-3.9,6.2-6.2,6.4
			c-4.3,0.4-6.5-3.8-7.1-7.6c-1.9-12.1,1.5-23.1,8.9-32.7c2.7-3.4,6.3-6,9.5-8.9C67.7,285,68.1,285.2,68.6,285.5z"/>
		<path class="st0" d="M142.9,291.5c-2.5-7.9,0.3-13.9,7.7-16.5c6.5-2.3,13.6,0.8,15.9,7.4c3.1,9,0.6,17.7-1.9,26.4
			c-0.2,0.7-2.1,1.4-3.2,1.4c-1.8-0.1-3.6-0.7-5.3-1.3c-9.4-3.7-10.2-7.1-3.9-14.7c1.4-1.7,2-3.9,3-5.9c-2.5,0.3-5,0.4-7.5,1
			C146,289.6,144.5,290.7,142.9,291.5z"/>
		<path class="st0" d="M228.6,311.8c0.8-4.2,1.4-8.4,2.5-12.4c0.4-1.6,1.7-3.3,3-4.4c2.8-2.3,6.4-4.1,9.4-1.3
			c3.1,2.8,2.1,6.8-0.5,9.3c-3.8,3.7-8.2,6.8-12.3,10.2C230,312.7,229.3,312.2,228.6,311.8z"/>
		<path class="st0" d="M163.2,313.8c-1.7,3-3,6.2-5.1,8.9c-2.7,3.5-6,3.2-8.7-0.3c-2.7-3.5-4-10.6-3.1-15.3
			C151.7,309.2,157,311.3,163.2,313.8z"/>
	</g>
</g>
</svg>
